<mxfile host="65bd71144e">
    <diagram id="2rudtphZSc2H7k-u-EJh" name="Page-1">
        <mxGraphModel dx="1257" dy="901" grid="1" gridSize="10" guides="1" tooltips="1" connect="1" arrows="1" fold="1" page="1" pageScale="1" pageWidth="850" pageHeight="1100" math="0" shadow="0">
            <root>
                <mxCell id="0"/>
                <mxCell id="1" parent="0"/>
                <mxCell id="21" value="" style="endArrow=classic;html=1;strokeWidth=1;fontFamily=Helvetica;fontSize=17;fontColor=#000000;exitX=0.9;exitY=1.013;exitDx=0;exitDy=0;exitPerimeter=0;opacity=60;dashed=1;dashPattern=1 2;entryX=0.393;entryY=-0.015;entryDx=0;entryDy=0;entryPerimeter=0;strokeColor=default;" edge="1" parent="1" source="5" target="14">
                    <mxGeometry width="50" height="50" relative="1" as="geometry">
                        <mxPoint x="445.54999999999995" y="322.0799999999999" as="sourcePoint"/>
                        <mxPoint x="316.5925779185245" y="401.2954635499964" as="targetPoint"/>
                    </mxGeometry>
                </mxCell>
                <mxCell id="17" value="" style="endArrow=classic;html=1;strokeWidth=1;fontFamily=Helvetica;fontSize=17;fontColor=#000000;exitX=0.237;exitY=1.013;exitDx=0;exitDy=0;exitPerimeter=0;opacity=60;dashed=1;dashPattern=1 2;strokeColor=default;" edge="1" parent="1" source="5" target="6">
                    <mxGeometry width="50" height="50" relative="1" as="geometry">
                        <mxPoint x="400" y="420" as="sourcePoint"/>
                        <mxPoint x="450" y="370" as="targetPoint"/>
                    </mxGeometry>
                </mxCell>
                <mxCell id="18" value="" style="endArrow=classic;html=1;strokeWidth=1;fontFamily=Helvetica;fontSize=17;fontColor=#000000;exitX=0.348;exitY=0.999;exitDx=0;exitDy=0;exitPerimeter=0;opacity=60;dashed=1;dashPattern=1 2;entryX=0.801;entryY=0.072;entryDx=0;entryDy=0;entryPerimeter=0;strokeColor=default;" edge="1" parent="1" source="5" target="12">
                    <mxGeometry width="50" height="50" relative="1" as="geometry">
                        <mxPoint x="415.54999999999995" y="292.0799999999999" as="sourcePoint"/>
                        <mxPoint x="286.5925779185245" y="371.2954635499964" as="targetPoint"/>
                    </mxGeometry>
                </mxCell>
                <mxCell id="19" value="" style="endArrow=classic;html=1;strokeWidth=1;fontFamily=Helvetica;fontSize=17;fontColor=#000000;exitX=0.459;exitY=1.002;exitDx=0;exitDy=0;exitPerimeter=0;opacity=60;dashed=1;dashPattern=1 2;entryX=0.5;entryY=0;entryDx=0;entryDy=0;strokeColor=default;" edge="1" parent="1" source="5" target="13">
                    <mxGeometry width="50" height="50" relative="1" as="geometry">
                        <mxPoint x="425.54999999999995" y="302.0799999999999" as="sourcePoint"/>
                        <mxPoint x="296.5925779185245" y="381.2954635499964" as="targetPoint"/>
                    </mxGeometry>
                </mxCell>
                <mxCell id="20" value="" style="endArrow=classic;html=1;strokeWidth=1;fontFamily=Helvetica;fontSize=17;fontColor=#000000;exitX=0.674;exitY=1.03;exitDx=0;exitDy=0;exitPerimeter=0;opacity=60;dashed=1;dashPattern=1 2;entryX=0.231;entryY=0.063;entryDx=0;entryDy=0;entryPerimeter=0;strokeColor=default;" edge="1" parent="1" source="5" target="11">
                    <mxGeometry width="50" height="50" relative="1" as="geometry">
                        <mxPoint x="435.54999999999995" y="312.0799999999999" as="sourcePoint"/>
                        <mxPoint x="306.5925779185245" y="391.2954635499964" as="targetPoint"/>
                    </mxGeometry>
                </mxCell>
                <mxCell id="4" value="&lt;span style=&quot;font-family: &amp;quot;Rock Salt&amp;quot;; font-size: 21px;&quot;&gt;One Work, Many Locations&lt;/span&gt;" style="rounded=1;whiteSpace=wrap;html=1;strokeColor=#000000;fontColor=#000000;strokeWidth=2;" vertex="1" parent="1">
                    <mxGeometry x="230" y="30" width="390" height="70" as="geometry"/>
                </mxCell>
                <mxCell id="5" value="&lt;div style=&quot;text-align: left;&quot;&gt;&lt;span style=&quot;background-color: initial;&quot;&gt;&lt;font face=&quot;Rock Salt&quot;&gt;&lt;a href=&quot;https://openalex.org/W2807749226&quot;&gt;W2807749226&lt;/a&gt;&lt;/font&gt;&lt;br&gt;&lt;/span&gt;&lt;/div&gt;&lt;div style=&quot;text-align: left;&quot;&gt;&lt;span style=&quot;font-family: &amp;quot;Rock Salt&amp;quot;; background-color: initial;&quot;&gt;&lt;br&gt;&lt;/span&gt;&lt;/div&gt;&lt;div style=&quot;text-align: left;&quot;&gt;&lt;span style=&quot;font-family: &amp;quot;Rock Salt&amp;quot;; background-color: initial;&quot;&gt;Genome-wide association study of habitual physical activity...&lt;/span&gt;&lt;/div&gt;" style="whiteSpace=wrap;html=1;shape=mxgraph.basic.document;strokeColor=#000000;strokeWidth=2;fontColor=#000000;spacingLeft=7;verticalAlign=top;spacingTop=13;" vertex="1" parent="1">
                    <mxGeometry x="370" y="120" width="150" height="160" as="geometry"/>
                </mxCell>
                <mxCell id="6" value="&lt;div style=&quot;font-size: 14px;&quot;&gt;&lt;span style=&quot;background-color: initial;&quot;&gt;URL: &lt;/span&gt;&lt;span style=&quot;background-color: initial;&quot;&gt;&lt;a href=&quot;https://doi.org/10.1038/s41366-018-0120-3&quot;&gt;https://doi.org/10.1038&lt;/a&gt;...&lt;/span&gt;&lt;br&gt;&lt;/div&gt;&lt;font style=&quot;font-size: 14px;&quot;&gt;&lt;div style=&quot;&quot;&gt;&lt;span style=&quot;background-color: initial;&quot;&gt;Source: &lt;a href=&quot;https://openalex.org/S103428141&quot;&gt;Int. J. Obes.&lt;/a&gt;&lt;/span&gt;&lt;/div&gt;&lt;div style=&quot;&quot;&gt;Paywalled&amp;nbsp;ðŸ”’&lt;/div&gt;&lt;div style=&quot;&quot;&gt;Published Version&lt;/div&gt;&lt;/font&gt;" style="ellipse;whiteSpace=wrap;html=1;strokeColor=#000000;strokeWidth=2;fontSize=10;fontColor=#000000;align=left;spacingLeft=33;" vertex="1" parent="1">
                    <mxGeometry x="40" y="345" width="290" height="145" as="geometry"/>
                </mxCell>
                <mxCell id="8" value="&lt;span style=&quot;font-family: &amp;quot;Rock Salt&amp;quot;;&quot;&gt;&lt;font style=&quot;font-size: 17px;&quot;&gt;Primary Location (version of record)&lt;/font&gt;&lt;/span&gt;" style="rounded=0;whiteSpace=wrap;html=1;strokeColor=#000000;strokeWidth=2;fontFamily=Helvetica;fontSize=13;fontColor=#000000;" vertex="1" parent="1">
                    <mxGeometry x="60" y="200" width="220" height="80" as="geometry"/>
                </mxCell>
                <mxCell id="9" value="" style="endArrow=block;html=1;fontFamily=Helvetica;fontSize=15;fontColor=#000000;exitX=0.5;exitY=1;exitDx=0;exitDy=0;endFill=1;strokeWidth=4;strokeColor=default;sketch=1;curveFitting=1;jiggle=2;" edge="1" parent="1" source="8" target="6">
                    <mxGeometry width="50" height="50" relative="1" as="geometry">
                        <mxPoint x="400" y="450" as="sourcePoint"/>
                        <mxPoint x="450" y="400" as="targetPoint"/>
                    </mxGeometry>
                </mxCell>
                <mxCell id="11" value="URL:&amp;nbsp;&lt;a href=&quot;http://hdl.handle.net/10150/628583&quot;&gt;http://hdl.handle.net/101&lt;/a&gt;...&lt;br&gt;Source: UA Campus Repository&lt;br&gt;Open Access&amp;nbsp;ðŸ”“&lt;br&gt;Published Version" style="ellipse;whiteSpace=wrap;html=1;strokeColor=#000000;strokeWidth=2;fontFamily=Helvetica;fontSize=14;fontColor=#000000;align=left;labelPosition=center;verticalLabelPosition=middle;verticalAlign=middle;spacingLeft=27;" vertex="1" parent="1">
                    <mxGeometry x="460" y="340" width="260" height="160" as="geometry"/>
                </mxCell>
                <mxCell id="12" value="URL:&amp;nbsp;&lt;a href=&quot;https://europepmc.org/articles/pmc6195860&quot;&gt;https://europepmc.org/arti&lt;/a&gt;...&lt;br&gt;Source: Europe PMC&lt;br&gt;Open Access&amp;nbsp;ðŸ”“&lt;br&gt;Accepted Version" style="ellipse;whiteSpace=wrap;html=1;strokeColor=#000000;strokeWidth=2;fontFamily=Helvetica;fontSize=14;fontColor=#000000;align=left;labelPosition=center;verticalLabelPosition=middle;verticalAlign=middle;spacingLeft=27;" vertex="1" parent="1">
                    <mxGeometry x="35" y="550" width="260" height="160" as="geometry"/>
                </mxCell>
                <mxCell id="13" value="URL:&amp;nbsp;&lt;a href=&quot;https://www.ncbi.nlm.nih.gov/pmc/articles/PMC6195860&quot;&gt;https://www.ncbi.nlm.nih.gov/&lt;/a&gt;...&lt;br&gt;Source: Pubmed Central&lt;br&gt;Open Access&amp;nbsp;ðŸ”“&lt;br&gt;Accepted Version" style="ellipse;whiteSpace=wrap;html=1;strokeColor=#000000;strokeWidth=2;fontFamily=Helvetica;fontSize=14;fontColor=#000000;align=left;labelPosition=center;verticalLabelPosition=middle;verticalAlign=middle;spacingLeft=27;" vertex="1" parent="1">
                    <mxGeometry x="300" y="490" width="260" height="160" as="geometry"/>
                </mxCell>
                <mxCell id="14" value="URL:&amp;nbsp;&lt;a href=&quot;https://doi.org/10.1101/179317&quot;&gt;https://doi.org/10.1101/17&lt;/a&gt;...&lt;span style=&quot;color: rgba(0, 0, 0, 0); font-family: monospace; font-size: 0px;&quot;&gt;%3CmxGraphModel%3E%3Croot%3E%3CmxCell%20id%3D%220%22%2F%3E%3CmxCell%20id%3D%221%22%20parent%3D%220%22%2F%3E%3CmxCell%20id%3D%222%22%20value%3D%22URL%3A%26amp%3Bnbsp%3B%26lt%3Ba%20href%3D%26quot%3Bhttps%3A%2F%2Fwww.ncbi.nlm.nih.gov%2Fpmc%2Farticles%2FPMC6195860%26quot%3B%26gt%3Bhttps%3A%2F%2Fwww.ncbi.nlm.nih.gov%2F%26lt%3B%2Fa%26gt%3B...%26lt%3Bbr%26gt%3BSource%3A%20Pubmed%20Central%26lt%3Bbr%26gt%3BOpen%20Access%26amp%3Bnbsp%3B%F0%9F%94%93%26lt%3Bbr%26gt%3BAccepted%20Version%22%20style%3D%22ellipse%3BwhiteSpace%3Dwrap%3Bhtml%3D1%3BstrokeColor%3D%23000000%3BstrokeWidth%3D2%3BfontFamily%3DHelvetica%3BfontSize%3D14%3BfontColor%3D%23000000%3Balign%3Dleft%3BlabelPosition%3Dcenter%3BverticalLabelPosition%3Dmiddle%3BverticalAlign%3Dmiddle%3BspacingLeft%3D27%3B%22%20vertex%3D%221%22%20parent%3D%221%22%3E%3CmxGeometry%20x%3D%22400%22%20y%3D%22510%22%20width%3D%22260%22%20height%3D%22160%22%20as%3D%22geometry%22%2F%3E%3C%2FmxCell%3E%3C%2Froot%3E%3C%2FmxGraphModel%3E&lt;/span&gt;&lt;br&gt;Source: bioRxiv&lt;br&gt;Open Access&amp;nbsp;ðŸ”“&lt;br&gt;Submitted Version" style="ellipse;whiteSpace=wrap;html=1;strokeColor=#000000;strokeWidth=2;fontFamily=Helvetica;fontSize=14;fontColor=#000000;align=left;labelPosition=center;verticalLabelPosition=middle;verticalAlign=middle;spacingLeft=27;" vertex="1" parent="1">
                    <mxGeometry x="560" y="610" width="260" height="160" as="geometry"/>
                </mxCell>
                <mxCell id="15" value="&lt;span style=&quot;font-family: &amp;quot;Rock Salt&amp;quot;;&quot;&gt;&lt;font style=&quot;font-size: 17px;&quot;&gt;Best OA Location&lt;/font&gt;&lt;/span&gt;" style="rounded=0;whiteSpace=wrap;html=1;strokeColor=#000000;strokeWidth=2;fontFamily=Helvetica;fontSize=13;fontColor=#000000;" vertex="1" parent="1">
                    <mxGeometry x="560" y="170" width="210" height="70" as="geometry"/>
                </mxCell>
                <mxCell id="16" value="" style="endArrow=block;html=1;fontFamily=Helvetica;fontSize=15;fontColor=#000000;exitX=0.5;exitY=1;exitDx=0;exitDy=0;endFill=1;strokeWidth=4;sketch=1;curveFitting=1;jiggle=2;" edge="1" parent="1" source="15" target="11">
                    <mxGeometry width="50" height="50" relative="1" as="geometry">
                        <mxPoint x="710" y="260" as="sourcePoint"/>
                        <mxPoint x="720.1587992075758" y="335.1671741756836" as="targetPoint"/>
                    </mxGeometry>
                </mxCell>
            </root>
        </mxGraphModel>
    </diagram>
</mxfile>